<?xml version="1.0" encoding="UTF-8" standalone="no"?>
<!DOCTYPE svg PUBLIC "-//W3C//DTD SVG 1.1//EN"
 "http://www.w3.org/Graphics/SVG/1.1/DTD/svg11.dtd">
<!-- Generated by graphviz version 2.38.0 (20140413.2041)
 -->
<!-- Title: %3 Pages: 1 -->
<svg width="943pt" height="908pt"
 viewBox="0.00 0.00 943.00 908.00" xmlns="http://www.w3.org/2000/svg" xmlns:xlink="http://www.w3.org/1999/xlink">
<g id="graph0" class="graph" transform="scale(1 1) rotate(0) translate(4 904)">
<title>%3</title>
<polygon fill="white" stroke="none" points="-4,4 -4,-904 939,-904 939,4 -4,4"/>
<!-- nba_api -->
<g id="node1" class="node"><title>nba_api</title>
<polygon fill="lemonchiffon" stroke="black" stroke-width="2" points="61,-603 58,-607 37,-607 34,-603 3.55271e-015,-603 3.55271e-015,-567 61,-567 61,-603"/>
<text text-anchor="start" x="8" y="-581.3" font-family="Times New Roman,serif" font-size="14.00">nba_api</text>
</g>
<!-- nba_api\analysis_archive -->
<g id="node2" class="node"><title>nba_api\analysis_archive</title>
<polygon fill="lemonchiffon" stroke="black" stroke-width="2" points="204,-846 201,-850 180,-850 177,-846 97,-846 97,-810 204,-810 204,-846"/>
<text text-anchor="start" x="105" y="-824.3" font-family="Times New Roman,serif" font-size="14.00">analysis_archive</text>
</g>
<!-- nba_api&#45;&gt;nba_api\analysis_archive -->
<g id="edge1" class="edge"><title>nba_api&#45;&gt;nba_api\analysis_archive</title>
<path fill="none" stroke="black" d="M37.7804,-603.122C54.1745,-650.427 97,-774 97,-774 97,-774 111.137,-788.541 124.739,-802.532"/>
<polygon fill="black" stroke="black" points="122.246,-804.988 131.726,-809.718 127.265,-800.108 122.246,-804.988"/>
</g>
<!-- nba_api\docs -->
<g id="node3" class="node"><title>nba_api\docs</title>
<polygon fill="lemonchiffon" stroke="black" stroke-width="2" points="177.5,-765 174.5,-769 153.5,-769 150.5,-765 123.5,-765 123.5,-729 177.5,-729 177.5,-765"/>
<text text-anchor="start" x="131.5" y="-743.3" font-family="Times New Roman,serif" font-size="14.00">docs</text>
</g>
<!-- nba_api&#45;&gt;nba_api\docs -->
<g id="edge2" class="edge"><title>nba_api&#45;&gt;nba_api\docs</title>
<path fill="none" stroke="black" d="M44.8067,-603.269C65.6105,-631.83 105.944,-687.202 130.021,-720.258"/>
<polygon fill="black" stroke="black" points="127.344,-722.527 136.061,-728.55 133.002,-718.406 127.344,-722.527"/>
</g>
<!-- nba_api\nba_api -->
<g id="node4" class="node"><title>nba_api\nba_api</title>
<polygon fill="lemonchiffon" stroke="black" stroke-width="2" points="181,-630 178,-634 157,-634 154,-630 120,-630 120,-594 181,-594 181,-630"/>
<text text-anchor="start" x="128" y="-608.3" font-family="Times New Roman,serif" font-size="14.00">nba_api</text>
</g>
<!-- nba_api&#45;&gt;nba_api\nba_api -->
<g id="edge3" class="edge"><title>nba_api&#45;&gt;nba_api\nba_api</title>
<path fill="none" stroke="black" d="M61.2764,-591.813C75.9501,-595.171 93.8502,-599.267 109.682,-602.889"/>
<polygon fill="black" stroke="black" points="109.204,-606.37 119.733,-605.189 110.766,-599.547 109.204,-606.37"/>
</g>
<!-- nba_api\scripts -->
<g id="node5" class="node"><title>nba_api\scripts</title>
<polygon fill="lemonchiffon" stroke="black" stroke-width="2" points="177.5,-576 174.5,-580 153.5,-580 150.5,-576 123.5,-576 123.5,-540 177.5,-540 177.5,-576"/>
<text text-anchor="start" x="131.5" y="-554.3" font-family="Times New Roman,serif" font-size="14.00">scripts</text>
</g>
<!-- nba_api&#45;&gt;nba_api\scripts -->
<g id="edge4" class="edge"><title>nba_api&#45;&gt;nba_api\scripts</title>
<path fill="none" stroke="black" d="M61.2764,-578.187C77.1075,-574.564 96.6942,-570.083 113.388,-566.263"/>
<polygon fill="black" stroke="black" points="114.381,-569.626 123.349,-563.984 112.82,-562.803 114.381,-569.626"/>
</g>
<!-- nba_api\tests -->
<g id="node6" class="node"><title>nba_api\tests</title>
<polygon fill="lemonchiffon" stroke="black" stroke-width="2" points="177.5,-414 174.5,-418 153.5,-418 150.5,-414 123.5,-414 123.5,-378 177.5,-378 177.5,-414"/>
<text text-anchor="start" x="131.5" y="-392.3" font-family="Times New Roman,serif" font-size="14.00">tests</text>
</g>
<!-- nba_api&#45;&gt;nba_api\tests -->
<g id="edge5" class="edge"><title>nba_api&#45;&gt;nba_api\tests</title>
<path fill="none" stroke="black" d="M42.8143,-566.878C63.695,-533.433 108.376,-461.868 132.768,-422.8"/>
<polygon fill="black" stroke="black" points="135.893,-424.403 138.22,-414.067 129.955,-420.696 135.893,-424.403"/>
</g>
<!-- nba_api\tools -->
<g id="node7" class="node"><title>nba_api\tools</title>
<polygon fill="lemonchiffon" stroke="black" stroke-width="2" points="177.5,-279 174.5,-283 153.5,-283 150.5,-279 123.5,-279 123.5,-243 177.5,-243 177.5,-279"/>
<text text-anchor="start" x="131.5" y="-257.3" font-family="Times New Roman,serif" font-size="14.00">tools</text>
</g>
<!-- nba_api&#45;&gt;nba_api\tools -->
<g id="edge6" class="edge"><title>nba_api&#45;&gt;nba_api\tools</title>
<path fill="none" stroke="black" d="M36.9718,-566.955C52.7141,-515.042 97,-369 97,-369 97,-369 120.502,-320.654 136.057,-288.655"/>
<polygon fill="black" stroke="black" points="139.37,-289.845 140.594,-279.321 133.074,-286.784 139.37,-289.845"/>
</g>
<!-- nba_api\analysis_archive\stats -->
<g id="node8" class="node"><title>nba_api\analysis_archive\stats</title>
<polygon fill="lemonchiffon" stroke="black" stroke-width="2" points="301,-873 298,-877 277,-877 274,-873 247,-873 247,-837 301,-837 301,-873"/>
<text text-anchor="start" x="255" y="-851.3" font-family="Times New Roman,serif" font-size="14.00">stats</text>
</g>
<!-- nba_api\analysis_archive&#45;&gt;nba_api\analysis_archive\stats -->
<g id="edge7" class="edge"><title>nba_api\analysis_archive&#45;&gt;nba_api\analysis_archive\stats</title>
<path fill="none" stroke="black" d="M204.085,-839.686C215.148,-842.144 226.579,-844.684 236.875,-846.972"/>
<polygon fill="black" stroke="black" points="236.215,-850.411 246.736,-849.163 237.733,-843.577 236.215,-850.411"/>
</g>
<!-- nba_api\docs\examples -->
<g id="node9" class="node"><title>nba_api\docs\examples</title>
<polygon fill="lemonchiffon" stroke="black" stroke-width="2" points="308,-819 305,-823 284,-823 281,-819 240,-819 240,-783 308,-783 308,-819"/>
<text text-anchor="start" x="248" y="-797.3" font-family="Times New Roman,serif" font-size="14.00">examples</text>
</g>
<!-- nba_api\docs&#45;&gt;nba_api\docs\examples -->
<g id="edge8" class="edge"><title>nba_api\docs&#45;&gt;nba_api\docs\examples</title>
<path fill="none" stroke="black" d="M177.565,-758.584C192.861,-765.383 212.57,-774.142 230.102,-781.934"/>
<polygon fill="black" stroke="black" points="229.016,-785.282 239.576,-786.145 231.859,-778.885 229.016,-785.282"/>
</g>
<!-- nba_api\docs\nba_api -->
<g id="node10" class="node"><title>nba_api\docs\nba_api</title>
<polygon fill="lemonchiffon" stroke="black" stroke-width="2" points="304.5,-765 301.5,-769 280.5,-769 277.5,-765 243.5,-765 243.5,-729 304.5,-729 304.5,-765"/>
<text text-anchor="start" x="251.5" y="-743.3" font-family="Times New Roman,serif" font-size="14.00">nba_api</text>
</g>
<!-- nba_api\docs&#45;&gt;nba_api\docs\nba_api -->
<g id="edge9" class="edge"><title>nba_api\docs&#45;&gt;nba_api\docs\nba_api</title>
<path fill="none" stroke="black" d="M177.565,-747C193.728,-747 214.816,-747 233.058,-747"/>
<polygon fill="black" stroke="black" points="233.129,-750.5 243.129,-747 233.129,-743.5 233.129,-750.5"/>
</g>
<!-- nba_api\nba_api\library -->
<g id="node24" class="node"><title>nba_api\nba_api\library</title>
<polygon fill="lemonchiffon" stroke="black" stroke-width="2" points="301,-684 298,-688 277,-688 274,-684 247,-684 247,-648 301,-648 301,-684"/>
<text text-anchor="start" x="255" y="-662.3" font-family="Times New Roman,serif" font-size="14.00">library</text>
</g>
<!-- nba_api\nba_api&#45;&gt;nba_api\nba_api\library -->
<g id="edge23" class="edge"><title>nba_api\nba_api&#45;&gt;nba_api\nba_api\library</title>
<path fill="none" stroke="black" d="M181.222,-625.21C198.175,-632.745 219.535,-642.238 237.382,-650.17"/>
<polygon fill="black" stroke="black" points="236.325,-653.53 246.885,-654.393 239.168,-647.134 236.325,-653.53"/>
</g>
<!-- nba_api\nba_api\live -->
<g id="node25" class="node"><title>nba_api\nba_api\live</title>
<polygon fill="lemonchiffon" stroke="black" stroke-width="2" points="301,-630 298,-634 277,-634 274,-630 247,-630 247,-594 301,-594 301,-630"/>
<text text-anchor="start" x="255" y="-608.3" font-family="Times New Roman,serif" font-size="14.00">live</text>
</g>
<!-- nba_api\nba_api&#45;&gt;nba_api\nba_api\live -->
<g id="edge24" class="edge"><title>nba_api\nba_api&#45;&gt;nba_api\nba_api\live</title>
<path fill="none" stroke="black" d="M181.222,-612C197.861,-612 218.746,-612 236.387,-612"/>
<polygon fill="black" stroke="black" points="236.885,-615.5 246.885,-612 236.885,-608.5 236.885,-615.5"/>
</g>
<!-- nba_api\nba_api\stats -->
<g id="node26" class="node"><title>nba_api\nba_api\stats</title>
<polygon fill="lemonchiffon" stroke="black" stroke-width="2" points="301,-549 298,-553 277,-553 274,-549 247,-549 247,-513 301,-513 301,-549"/>
<text text-anchor="start" x="255" y="-527.3" font-family="Times New Roman,serif" font-size="14.00">stats</text>
</g>
<!-- nba_api\nba_api&#45;&gt;nba_api\nba_api\stats -->
<g id="edge25" class="edge"><title>nba_api\nba_api&#45;&gt;nba_api\nba_api\stats</title>
<path fill="none" stroke="black" d="M181.125,-596.764C193.034,-590.64 204,-585 204,-585 204,-585 223.268,-569.92 241.441,-555.699"/>
<polygon fill="black" stroke="black" points="243.922,-558.201 249.64,-549.282 239.608,-552.689 243.922,-558.201"/>
</g>
<!-- nba_api\tests\live -->
<g id="node34" class="node"><title>nba_api\tests\live</title>
<polygon fill="lemonchiffon" stroke="black" stroke-width="2" points="301,-414 298,-418 277,-418 274,-414 247,-414 247,-378 301,-378 301,-414"/>
<text text-anchor="start" x="255" y="-392.3" font-family="Times New Roman,serif" font-size="14.00">live</text>
</g>
<!-- nba_api\tests&#45;&gt;nba_api\tests\live -->
<g id="edge33" class="edge"><title>nba_api\tests&#45;&gt;nba_api\tests\live</title>
<path fill="none" stroke="black" d="M177.565,-396C194.862,-396 217.8,-396 236.853,-396"/>
<polygon fill="black" stroke="black" points="236.978,-399.5 246.978,-396 236.978,-392.5 236.978,-399.5"/>
</g>
<!-- nba_api\tests\stats -->
<g id="node35" class="node"><title>nba_api\tests\stats</title>
<polygon fill="lemonchiffon" stroke="black" stroke-width="2" points="301,-360 298,-364 277,-364 274,-360 247,-360 247,-324 301,-324 301,-360"/>
<text text-anchor="start" x="255" y="-338.3" font-family="Times New Roman,serif" font-size="14.00">stats</text>
</g>
<!-- nba_api\tests&#45;&gt;nba_api\tests\stats -->
<g id="edge34" class="edge"><title>nba_api\tests&#45;&gt;nba_api\tests\stats</title>
<path fill="none" stroke="black" d="M177.565,-384.416C195.102,-376.621 218.438,-366.25 237.645,-357.713"/>
<polygon fill="black" stroke="black" points="239.262,-360.825 246.978,-353.565 236.419,-354.428 239.262,-360.825"/>
</g>
<!-- nba_api\tools\library -->
<g id="node39" class="node"><title>nba_api\tools\library</title>
<polygon fill="lemonchiffon" stroke="black" stroke-width="2" points="301,-279 298,-283 277,-283 274,-279 247,-279 247,-243 301,-243 301,-279"/>
<text text-anchor="start" x="255" y="-257.3" font-family="Times New Roman,serif" font-size="14.00">library</text>
</g>
<!-- nba_api\tools&#45;&gt;nba_api\tools\library -->
<g id="edge38" class="edge"><title>nba_api\tools&#45;&gt;nba_api\tools\library</title>
<path fill="none" stroke="black" d="M177.565,-261C194.862,-261 217.8,-261 236.853,-261"/>
<polygon fill="black" stroke="black" points="236.978,-264.5 246.978,-261 236.978,-257.5 236.978,-264.5"/>
</g>
<!-- nba_api\tools\stats -->
<g id="node40" class="node"><title>nba_api\tools\stats</title>
<polygon fill="lemonchiffon" stroke="black" stroke-width="2" points="301,-198 298,-202 277,-202 274,-198 247,-198 247,-162 301,-162 301,-198"/>
<text text-anchor="start" x="255" y="-176.3" font-family="Times New Roman,serif" font-size="14.00">stats</text>
</g>
<!-- nba_api\tools&#45;&gt;nba_api\tools\stats -->
<g id="edge39" class="edge"><title>nba_api\tools&#45;&gt;nba_api\tools\stats</title>
<path fill="none" stroke="black" d="M177.565,-243.623C195.342,-231.772 219.079,-215.947 238.432,-203.045"/>
<polygon fill="black" stroke="black" points="240.599,-205.807 246.978,-197.348 236.716,-199.983 240.599,-205.807"/>
</g>
<!-- nba_api\docs\nba_api\library -->
<g id="node11" class="node"><title>nba_api\docs\nba_api\library</title>
<polygon fill="lemonchiffon" stroke="black" stroke-width="2" points="481.5,-900 478.5,-904 457.5,-904 454.5,-900 427.5,-900 427.5,-864 481.5,-864 481.5,-900"/>
<text text-anchor="start" x="435.5" y="-878.3" font-family="Times New Roman,serif" font-size="14.00">library</text>
</g>
<!-- nba_api\docs\nba_api&#45;&gt;nba_api\docs\nba_api\library -->
<g id="edge10" class="edge"><title>nba_api\docs\nba_api&#45;&gt;nba_api\docs\nba_api\library</title>
<path fill="none" stroke="black" d="M297.195,-765.159C303.164,-770.043 308,-774 308,-774 308,-774 344,-855 344,-855 344,-855 385.426,-865.215 417.317,-873.078"/>
<polygon fill="black" stroke="black" points="416.725,-876.537 427.272,-875.533 418.401,-869.74 416.725,-876.537"/>
</g>
<!-- nba_api\docs\nba_api\live -->
<g id="node12" class="node"><title>nba_api\docs\nba_api\live</title>
<polygon fill="lemonchiffon" stroke="black" stroke-width="2" points="481.5,-846 478.5,-850 457.5,-850 454.5,-846 427.5,-846 427.5,-810 481.5,-810 481.5,-846"/>
<text text-anchor="start" x="435.5" y="-824.3" font-family="Times New Roman,serif" font-size="14.00">live</text>
</g>
<!-- nba_api\docs\nba_api&#45;&gt;nba_api\docs\nba_api\live -->
<g id="edge11" class="edge"><title>nba_api\docs\nba_api&#45;&gt;nba_api\docs\nba_api\live</title>
<path fill="none" stroke="black" d="M298.36,-765.282C318.378,-780.948 344,-801 344,-801 344,-801 385.426,-811.215 417.317,-819.078"/>
<polygon fill="black" stroke="black" points="416.725,-822.537 427.272,-821.533 418.401,-815.74 416.725,-822.537"/>
</g>
<!-- nba_api\docs\nba_api\stats -->
<g id="node13" class="node"><title>nba_api\docs\nba_api\stats</title>
<polygon fill="lemonchiffon" stroke="black" stroke-width="2" points="481.5,-792 478.5,-796 457.5,-796 454.5,-792 427.5,-792 427.5,-756 481.5,-756 481.5,-792"/>
<text text-anchor="start" x="435.5" y="-770.3" font-family="Times New Roman,serif" font-size="14.00">stats</text>
</g>
<!-- nba_api\docs\nba_api&#45;&gt;nba_api\docs\nba_api\stats -->
<g id="edge12" class="edge"><title>nba_api\docs\nba_api&#45;&gt;nba_api\docs\nba_api\stats</title>
<path fill="none" stroke="black" d="M304.877,-751.519C335.773,-756.193 384.043,-763.494 417.137,-768.5"/>
<polygon fill="black" stroke="black" points="416.897,-772.003 427.308,-770.038 417.944,-765.082 416.897,-772.003"/>
</g>
<!-- nba_api\docs\nba_api\tools -->
<g id="node14" class="node"><title>nba_api\docs\nba_api\tools</title>
<polygon fill="lemonchiffon" stroke="black" stroke-width="2" points="481.5,-738 478.5,-742 457.5,-742 454.5,-738 427.5,-738 427.5,-702 481.5,-702 481.5,-738"/>
<text text-anchor="start" x="435.5" y="-716.3" font-family="Times New Roman,serif" font-size="14.00">tools</text>
</g>
<!-- nba_api\docs\nba_api&#45;&gt;nba_api\docs\nba_api\tools -->
<g id="edge13" class="edge"><title>nba_api\docs\nba_api&#45;&gt;nba_api\docs\nba_api\tools</title>
<path fill="none" stroke="black" d="M304.877,-742.481C335.773,-737.807 384.043,-730.506 417.137,-725.5"/>
<polygon fill="black" stroke="black" points="417.944,-728.918 427.308,-723.962 416.897,-721.997 417.944,-728.918"/>
</g>
<!-- nba_api\docs\nba_api\live\endpoints -->
<g id="node15" class="node"><title>nba_api\docs\nba_api\live\endpoints</title>
<polygon fill="lemonchiffon" stroke="black" stroke-width="2" points="675,-900 672,-904 651,-904 648,-900 604,-900 604,-864 675,-864 675,-900"/>
<text text-anchor="start" x="612" y="-878.3" font-family="Times New Roman,serif" font-size="14.00">endpoints</text>
</g>
<!-- nba_api\docs\nba_api\live&#45;&gt;nba_api\docs\nba_api\live\endpoints -->
<g id="edge14" class="edge"><title>nba_api\docs\nba_api\live&#45;&gt;nba_api\docs\nba_api\live\endpoints</title>
<path fill="none" stroke="black" d="M481.728,-834.467C514.123,-842.455 565,-855 565,-855 565,-855 578.605,-859.998 594.109,-865.693"/>
<polygon fill="black" stroke="black" points="593.309,-869.128 603.902,-869.291 595.722,-862.557 593.309,-869.128"/>
</g>
<!-- nba_api\docs\nba_api\stats\endpoints -->
<g id="node16" class="node"><title>nba_api\docs\nba_api\stats\endpoints</title>
<polygon fill="lemonchiffon" stroke="black" stroke-width="2" points="675,-846 672,-850 651,-850 648,-846 604,-846 604,-810 675,-810 675,-846"/>
<text text-anchor="start" x="612" y="-824.3" font-family="Times New Roman,serif" font-size="14.00">endpoints</text>
</g>
<!-- nba_api\docs\nba_api\stats&#45;&gt;nba_api\docs\nba_api\stats\endpoints -->
<g id="edge15" class="edge"><title>nba_api\docs\nba_api\stats&#45;&gt;nba_api\docs\nba_api\stats\endpoints</title>
<path fill="none" stroke="black" d="M481.728,-780.467C514.123,-788.455 565,-801 565,-801 565,-801 578.605,-805.998 594.109,-811.693"/>
<polygon fill="black" stroke="black" points="593.309,-815.128 603.902,-815.291 595.722,-808.557 593.309,-815.128"/>
</g>
<!-- nba_api\docs\nba_api\stats\library -->
<g id="node17" class="node"><title>nba_api\docs\nba_api\stats\library</title>
<polygon fill="lemonchiffon" stroke="black" stroke-width="2" points="666.5,-792 663.5,-796 642.5,-796 639.5,-792 612.5,-792 612.5,-756 666.5,-756 666.5,-792"/>
<text text-anchor="start" x="620.5" y="-770.3" font-family="Times New Roman,serif" font-size="14.00">library</text>
</g>
<!-- nba_api\docs\nba_api\stats&#45;&gt;nba_api\docs\nba_api\stats\library -->
<g id="edge16" class="edge"><title>nba_api\docs\nba_api\stats&#45;&gt;nba_api\docs\nba_api\stats\library</title>
<path fill="none" stroke="black" d="M481.719,-774C513.246,-774 566.348,-774 601.902,-774"/>
<polygon fill="black" stroke="black" points="602.329,-777.5 612.329,-774 602.329,-770.5 602.329,-777.5"/>
</g>
<!-- nba_api\docs\nba_api\stats\static -->
<g id="node18" class="node"><title>nba_api\docs\nba_api\stats\static</title>
<polygon fill="lemonchiffon" stroke="black" stroke-width="2" points="666.5,-738 663.5,-742 642.5,-742 639.5,-738 612.5,-738 612.5,-702 666.5,-702 666.5,-738"/>
<text text-anchor="start" x="620.5" y="-716.3" font-family="Times New Roman,serif" font-size="14.00">static</text>
</g>
<!-- nba_api\docs\nba_api\stats&#45;&gt;nba_api\docs\nba_api\stats\static -->
<g id="edge17" class="edge"><title>nba_api\docs\nba_api\stats&#45;&gt;nba_api\docs\nba_api\stats\static</title>
<path fill="none" stroke="black" d="M481.728,-767.533C514.123,-759.545 565,-747 565,-747 565,-747 584.213,-739.942 602.993,-733.043"/>
<polygon fill="black" stroke="black" points="604.2,-736.329 612.38,-729.595 601.786,-729.758 604.2,-736.329"/>
</g>
<!-- nba_api\docs\nba_api\tools\stats -->
<g id="node19" class="node"><title>nba_api\docs\nba_api\tools\stats</title>
<polygon fill="lemonchiffon" stroke="black" stroke-width="2" points="666.5,-684 663.5,-688 642.5,-688 639.5,-684 612.5,-684 612.5,-648 666.5,-648 666.5,-684"/>
<text text-anchor="start" x="620.5" y="-662.3" font-family="Times New Roman,serif" font-size="14.00">stats</text>
</g>
<!-- nba_api\docs\nba_api\tools&#45;&gt;nba_api\docs\nba_api\tools\stats -->
<g id="edge18" class="edge"><title>nba_api\docs\nba_api\tools&#45;&gt;nba_api\docs\nba_api\tools\stats</title>
<path fill="none" stroke="black" d="M481.728,-713.533C514.123,-705.545 565,-693 565,-693 565,-693 584.213,-685.942 602.993,-679.043"/>
<polygon fill="black" stroke="black" points="604.2,-682.329 612.38,-675.595 601.786,-675.758 604.2,-682.329"/>
</g>
<!-- nba_api\docs\nba_api\tools\stats\endpoint_analysis -->
<g id="node20" class="node"><title>nba_api\docs\nba_api\tools\stats\endpoint_analysis</title>
<polygon fill="lemonchiffon" stroke="black" stroke-width="2" points="882.5,-765 879.5,-769 858.5,-769 855.5,-765 766.5,-765 766.5,-729 882.5,-729 882.5,-765"/>
<text text-anchor="start" x="774.5" y="-743.3" font-family="Times New Roman,serif" font-size="14.00">endpoint_analysis</text>
</g>
<!-- nba_api\docs\nba_api\tools\stats&#45;&gt;nba_api\docs\nba_api\tools\stats\endpoint_analysis -->
<g id="edge19" class="edge"><title>nba_api\docs\nba_api\tools\stats&#45;&gt;nba_api\docs\nba_api\tools\stats\endpoint_analysis</title>
<path fill="none" stroke="black" d="M665.721,-684.159C672.505,-689.043 678,-693 678,-693 678,-693 714,-720 714,-720 714,-720 733.67,-724.85 756.336,-730.439"/>
<polygon fill="black" stroke="black" points="755.637,-733.871 766.184,-732.867 757.313,-727.075 755.637,-733.871"/>
</g>
<!-- nba_api\docs\nba_api\tools\stats\endpoint_documentation_generator -->
<g id="node21" class="node"><title>nba_api\docs\nba_api\tools\stats\endpoint_documentation_generator</title>
<polygon fill="lemonchiffon" stroke="black" stroke-width="2" points="932,-711 929,-715 908,-715 905,-711 717,-711 717,-675 932,-675 932,-711"/>
<text text-anchor="start" x="725" y="-689.3" font-family="Times New Roman,serif" font-size="14.00">endpoint_documentation_generator</text>
</g>
<!-- nba_api\docs\nba_api\tools\stats&#45;&gt;nba_api\docs\nba_api\tools\stats\endpoint_documentation_generator -->
<g id="edge20" class="edge"><title>nba_api\docs\nba_api\tools\stats&#45;&gt;nba_api\docs\nba_api\tools\stats\endpoint_documentation_generator</title>
<path fill="none" stroke="black" d="M666.719,-669.868C677.988,-671.531 692.014,-673.6 707.009,-675.813"/>
<polygon fill="black" stroke="black" points="706.58,-679.287 716.984,-677.285 707.602,-672.362 706.58,-679.287"/>
</g>
<!-- nba_api\docs\nba_api\tools\stats\endpoint_py_file_generator -->
<g id="node22" class="node"><title>nba_api\docs\nba_api\tools\stats\endpoint_py_file_generator</title>
<polygon fill="lemonchiffon" stroke="black" stroke-width="2" points="909.5,-657 906.5,-661 885.5,-661 882.5,-657 739.5,-657 739.5,-621 909.5,-621 909.5,-657"/>
<text text-anchor="start" x="747.5" y="-635.3" font-family="Times New Roman,serif" font-size="14.00">endpoint_py_file_generator</text>
</g>
<!-- nba_api\docs\nba_api\tools\stats&#45;&gt;nba_api\docs\nba_api\tools\stats\endpoint_py_file_generator -->
<g id="edge21" class="edge"><title>nba_api\docs\nba_api\tools\stats&#45;&gt;nba_api\docs\nba_api\tools\stats\endpoint_py_file_generator</title>
<path fill="none" stroke="black" d="M666.719,-662.132C683.496,-659.656 706.382,-656.28 729.481,-652.872"/>
<polygon fill="black" stroke="black" points="729.995,-656.334 739.377,-651.412 728.973,-649.409 729.995,-656.334"/>
</g>
<!-- nba_api\docs\nba_api\tools\stats\parameter_documentation_generator -->
<g id="node23" class="node"><title>nba_api\docs\nba_api\tools\stats\parameter_documentation_generator</title>
<polygon fill="lemonchiffon" stroke="black" stroke-width="2" points="935,-603 932,-607 911,-607 908,-603 714,-603 714,-567 935,-567 935,-603"/>
<text text-anchor="start" x="722" y="-581.3" font-family="Times New Roman,serif" font-size="14.00">parameter_documentation_generator</text>
</g>
<!-- nba_api\docs\nba_api\tools\stats&#45;&gt;nba_api\docs\nba_api\tools\stats\parameter_documentation_generator -->
<g id="edge22" class="edge"><title>nba_api\docs\nba_api\tools\stats&#45;&gt;nba_api\docs\nba_api\tools\stats\parameter_documentation_generator</title>
<path fill="none" stroke="black" d="M665.721,-647.841C672.505,-642.957 678,-639 678,-639 678,-639 714,-612 714,-612 714,-612 725.23,-609.231 740.498,-605.466"/>
<polygon fill="black" stroke="black" points="741.591,-608.802 750.462,-603.009 739.915,-602.005 741.591,-608.802"/>
</g>
<!-- nba_api\nba_api\library\debug -->
<g id="node27" class="node"><title>nba_api\nba_api\library\debug</title>
<polygon fill="lemonchiffon" stroke="black" stroke-width="2" points="481.5,-684 478.5,-688 457.5,-688 454.5,-684 427.5,-684 427.5,-648 481.5,-648 481.5,-684"/>
<text text-anchor="start" x="435.5" y="-662.3" font-family="Times New Roman,serif" font-size="14.00">debug</text>
</g>
<!-- nba_api\nba_api\library&#45;&gt;nba_api\nba_api\library\debug -->
<g id="edge26" class="edge"><title>nba_api\nba_api\library&#45;&gt;nba_api\nba_api\library\debug</title>
<path fill="none" stroke="black" d="M301.338,-666C332.011,-666 382.853,-666 417.241,-666"/>
<polygon fill="black" stroke="black" points="417.344,-669.5 427.344,-666 417.344,-662.5 417.344,-669.5"/>
</g>
<!-- nba_api\nba_api\live\nba -->
<g id="node28" class="node"><title>nba_api\nba_api\live\nba</title>
<polygon fill="lemonchiffon" stroke="black" stroke-width="2" points="481.5,-630 478.5,-634 457.5,-634 454.5,-630 427.5,-630 427.5,-594 481.5,-594 481.5,-630"/>
<text text-anchor="start" x="435.5" y="-608.3" font-family="Times New Roman,serif" font-size="14.00">nba</text>
</g>
<!-- nba_api\nba_api\live&#45;&gt;nba_api\nba_api\live\nba -->
<g id="edge27" class="edge"><title>nba_api\nba_api\live&#45;&gt;nba_api\nba_api\live\nba</title>
<path fill="none" stroke="black" d="M301.338,-612C332.011,-612 382.853,-612 417.241,-612"/>
<polygon fill="black" stroke="black" points="417.344,-615.5 427.344,-612 417.344,-608.5 417.344,-615.5"/>
</g>
<!-- nba_api\nba_api\stats\endpoints -->
<g id="node31" class="node"><title>nba_api\nba_api\stats\endpoints</title>
<polygon fill="lemonchiffon" stroke="black" stroke-width="2" points="490,-576 487,-580 466,-580 463,-576 419,-576 419,-540 490,-540 490,-576"/>
<text text-anchor="start" x="427" y="-554.3" font-family="Times New Roman,serif" font-size="14.00">endpoints</text>
</g>
<!-- nba_api\nba_api\stats&#45;&gt;nba_api\nba_api\stats\endpoints -->
<g id="edge30" class="edge"><title>nba_api\nba_api\stats&#45;&gt;nba_api\nba_api\stats\endpoints</title>
<path fill="none" stroke="black" d="M301.338,-534.984C329.55,-539.251 374.825,-546.1 408.665,-551.218"/>
<polygon fill="black" stroke="black" points="408.358,-554.712 418.769,-552.747 409.405,-547.79 408.358,-554.712"/>
</g>
<!-- nba_api\nba_api\stats\library -->
<g id="node32" class="node"><title>nba_api\nba_api\stats\library</title>
<polygon fill="lemonchiffon" stroke="black" stroke-width="2" points="481.5,-522 478.5,-526 457.5,-526 454.5,-522 427.5,-522 427.5,-486 481.5,-486 481.5,-522"/>
<text text-anchor="start" x="435.5" y="-500.3" font-family="Times New Roman,serif" font-size="14.00">library</text>
</g>
<!-- nba_api\nba_api\stats&#45;&gt;nba_api\nba_api\stats\library -->
<g id="edge31" class="edge"><title>nba_api\nba_api\stats&#45;&gt;nba_api\nba_api\stats\library</title>
<path fill="none" stroke="black" d="M301.338,-527.016C332.011,-522.377 382.853,-514.686 417.241,-509.485"/>
<polygon fill="black" stroke="black" points="417.98,-512.913 427.344,-507.956 416.933,-505.991 417.98,-512.913"/>
</g>
<!-- nba_api\nba_api\stats\static -->
<g id="node33" class="node"><title>nba_api\nba_api\stats\static</title>
<polygon fill="lemonchiffon" stroke="black" stroke-width="2" points="481.5,-468 478.5,-472 457.5,-472 454.5,-468 427.5,-468 427.5,-432 481.5,-432 481.5,-468"/>
<text text-anchor="start" x="435.5" y="-446.3" font-family="Times New Roman,serif" font-size="14.00">static</text>
</g>
<!-- nba_api\nba_api\stats&#45;&gt;nba_api\nba_api\stats\static -->
<g id="edge32" class="edge"><title>nba_api\nba_api\stats&#45;&gt;nba_api\nba_api\stats\static</title>
<path fill="none" stroke="black" d="M298.36,-512.718C318.378,-497.052 344,-477 344,-477 344,-477 385.426,-466.785 417.317,-458.922"/>
<polygon fill="black" stroke="black" points="418.401,-462.26 427.272,-456.467 416.725,-455.463 418.401,-462.26"/>
</g>
<!-- nba_api\nba_api\live\nba\endpoints -->
<g id="node29" class="node"><title>nba_api\nba_api\live\nba\endpoints</title>
<polygon fill="lemonchiffon" stroke="black" stroke-width="2" points="675,-630 672,-634 651,-634 648,-630 604,-630 604,-594 675,-594 675,-630"/>
<text text-anchor="start" x="612" y="-608.3" font-family="Times New Roman,serif" font-size="14.00">endpoints</text>
</g>
<!-- nba_api\nba_api\live\nba&#45;&gt;nba_api\nba_api\live\nba\endpoints -->
<g id="edge28" class="edge"><title>nba_api\nba_api\live\nba&#45;&gt;nba_api\nba_api\live\nba\endpoints</title>
<path fill="none" stroke="black" d="M481.719,-612C510.954,-612 558.738,-612 593.882,-612"/>
<polygon fill="black" stroke="black" points="593.889,-615.5 603.889,-612 593.889,-608.5 593.889,-615.5"/>
</g>
<!-- nba_api\nba_api\live\nba\library -->
<g id="node30" class="node"><title>nba_api\nba_api\live\nba\library</title>
<polygon fill="lemonchiffon" stroke="black" stroke-width="2" points="666.5,-576 663.5,-580 642.5,-580 639.5,-576 612.5,-576 612.5,-540 666.5,-540 666.5,-576"/>
<text text-anchor="start" x="620.5" y="-554.3" font-family="Times New Roman,serif" font-size="14.00">library</text>
</g>
<!-- nba_api\nba_api\live\nba&#45;&gt;nba_api\nba_api\live\nba\library -->
<g id="edge29" class="edge"><title>nba_api\nba_api\live\nba&#45;&gt;nba_api\nba_api\live\nba\library</title>
<path fill="none" stroke="black" d="M481.728,-605.533C514.123,-597.545 565,-585 565,-585 565,-585 584.213,-577.942 602.993,-571.043"/>
<polygon fill="black" stroke="black" points="604.2,-574.329 612.38,-567.595 601.786,-567.758 604.2,-574.329"/>
</g>
<!-- nba_api\tests\live\endpoints -->
<g id="node36" class="node"><title>nba_api\tests\live\endpoints</title>
<polygon fill="lemonchiffon" stroke="black" stroke-width="2" points="490,-414 487,-418 466,-418 463,-414 419,-414 419,-378 490,-378 490,-414"/>
<text text-anchor="start" x="427" y="-392.3" font-family="Times New Roman,serif" font-size="14.00">endpoints</text>
</g>
<!-- nba_api\tests\live&#45;&gt;nba_api\tests\live\endpoints -->
<g id="edge35" class="edge"><title>nba_api\tests\live&#45;&gt;nba_api\tests\live\endpoints</title>
<path fill="none" stroke="black" d="M301.338,-396C329.55,-396 374.825,-396 408.665,-396"/>
<polygon fill="black" stroke="black" points="408.769,-399.5 418.769,-396 408.769,-392.5 408.769,-399.5"/>
</g>
<!-- nba_api\tests\stats\library -->
<g id="node37" class="node"><title>nba_api\tests\stats\library</title>
<polygon fill="lemonchiffon" stroke="black" stroke-width="2" points="481.5,-360 478.5,-364 457.5,-364 454.5,-360 427.5,-360 427.5,-324 481.5,-324 481.5,-360"/>
<text text-anchor="start" x="435.5" y="-338.3" font-family="Times New Roman,serif" font-size="14.00">library</text>
</g>
<!-- nba_api\tests\stats&#45;&gt;nba_api\tests\stats\library -->
<g id="edge36" class="edge"><title>nba_api\tests\stats&#45;&gt;nba_api\tests\stats\library</title>
<path fill="none" stroke="black" d="M301.338,-342C332.011,-342 382.853,-342 417.241,-342"/>
<polygon fill="black" stroke="black" points="417.344,-345.5 427.344,-342 417.344,-338.5 417.344,-345.5"/>
</g>
<!-- nba_api\tests\stats\library\playbyplay -->
<g id="node38" class="node"><title>nba_api\tests\stats\library\playbyplay</title>
<polygon fill="lemonchiffon" stroke="black" stroke-width="2" points="678,-360 675,-364 654,-364 651,-360 601,-360 601,-324 678,-324 678,-360"/>
<text text-anchor="start" x="609" y="-338.3" font-family="Times New Roman,serif" font-size="14.00">playbyplay</text>
</g>
<!-- nba_api\tests\stats\library&#45;&gt;nba_api\tests\stats\library\playbyplay -->
<g id="edge37" class="edge"><title>nba_api\tests\stats\library&#45;&gt;nba_api\tests\stats\library\playbyplay</title>
<path fill="none" stroke="black" d="M481.719,-342C510.022,-342 555.712,-342 590.485,-342"/>
<polygon fill="black" stroke="black" points="590.894,-345.5 600.894,-342 590.894,-338.5 590.894,-345.5"/>
</g>
<!-- nba_api\tools\stats\endpoint_analysis -->
<g id="node41" class="node"><title>nba_api\tools\stats\endpoint_analysis</title>
<polygon fill="lemonchiffon" stroke="black" stroke-width="2" points="512.5,-306 509.5,-310 488.5,-310 485.5,-306 396.5,-306 396.5,-270 512.5,-270 512.5,-306"/>
<text text-anchor="start" x="404.5" y="-284.3" font-family="Times New Roman,serif" font-size="14.00">endpoint_analysis</text>
</g>
<!-- nba_api\tools\stats&#45;&gt;nba_api\tools\stats\endpoint_analysis -->
<g id="edge40" class="edge"><title>nba_api\tools\stats&#45;&gt;nba_api\tools\stats\endpoint_analysis</title>
<path fill="none" stroke="black" d="M290.657,-198.38C311.015,-222.279 344,-261 344,-261 344,-261 363.67,-265.85 386.336,-271.439"/>
<polygon fill="black" stroke="black" points="385.637,-274.871 396.184,-273.867 387.313,-268.075 385.637,-274.871"/>
</g>
<!-- nba_api\tools\stats\endpoint_documentation_generator -->
<g id="node42" class="node"><title>nba_api\tools\stats\endpoint_documentation_generator</title>
<polygon fill="lemonchiffon" stroke="black" stroke-width="2" points="562,-252 559,-256 538,-256 535,-252 347,-252 347,-216 562,-216 562,-252"/>
<text text-anchor="start" x="355" y="-230.3" font-family="Times New Roman,serif" font-size="14.00">endpoint_documentation_generator</text>
</g>
<!-- nba_api\tools\stats&#45;&gt;nba_api\tools\stats\endpoint_documentation_generator -->
<g id="edge41" class="edge"><title>nba_api\tools\stats&#45;&gt;nba_api\tools\stats\endpoint_documentation_generator</title>
<path fill="none" stroke="black" d="M301.086,-190.208C320.626,-197.853 344,-207 344,-207 344,-207 355.23,-209.769 370.498,-213.534"/>
<polygon fill="black" stroke="black" points="369.915,-216.995 380.462,-215.991 371.591,-210.198 369.915,-216.995"/>
</g>
<!-- nba_api\tools\stats\endpoint_py_file_generator -->
<g id="node43" class="node"><title>nba_api\tools\stats\endpoint_py_file_generator</title>
<polygon fill="lemonchiffon" stroke="black" stroke-width="2" points="539.5,-198 536.5,-202 515.5,-202 512.5,-198 369.5,-198 369.5,-162 539.5,-162 539.5,-198"/>
<text text-anchor="start" x="377.5" y="-176.3" font-family="Times New Roman,serif" font-size="14.00">endpoint_py_file_generator</text>
</g>
<!-- nba_api\tools\stats&#45;&gt;nba_api\tools\stats\endpoint_py_file_generator -->
<g id="edge42" class="edge"><title>nba_api\tools\stats&#45;&gt;nba_api\tools\stats\endpoint_py_file_generator</title>
<path fill="none" stroke="black" d="M301.338,-180C316.994,-180 337.904,-180 359.199,-180"/>
<polygon fill="black" stroke="black" points="359.326,-183.5 369.326,-180 359.326,-176.5 359.326,-183.5"/>
</g>
<!-- nba_api\tools\stats\library -->
<g id="node44" class="node"><title>nba_api\tools\stats\library</title>
<polygon fill="lemonchiffon" stroke="black" stroke-width="2" points="481.5,-144 478.5,-148 457.5,-148 454.5,-144 427.5,-144 427.5,-108 481.5,-108 481.5,-144"/>
<text text-anchor="start" x="435.5" y="-122.3" font-family="Times New Roman,serif" font-size="14.00">library</text>
</g>
<!-- nba_api\tools\stats&#45;&gt;nba_api\tools\stats\library -->
<g id="edge43" class="edge"><title>nba_api\tools\stats&#45;&gt;nba_api\tools\stats\library</title>
<path fill="none" stroke="black" d="M301.086,-169.792C320.626,-162.147 344,-153 344,-153 344,-153 385.426,-142.785 417.317,-134.922"/>
<polygon fill="black" stroke="black" points="418.401,-138.26 427.272,-132.467 416.725,-131.463 418.401,-138.26"/>
</g>
<!-- nba_api\tools\stats\parameter_documentation_generator -->
<g id="node45" class="node"><title>nba_api\tools\stats\parameter_documentation_generator</title>
<polygon fill="lemonchiffon" stroke="black" stroke-width="2" points="565,-90 562,-94 541,-94 538,-90 344,-90 344,-54 565,-54 565,-90"/>
<text text-anchor="start" x="352" y="-68.3" font-family="Times New Roman,serif" font-size="14.00">parameter_documentation_generator</text>
</g>
<!-- nba_api\tools\stats&#45;&gt;nba_api\tools\stats\parameter_documentation_generator -->
<g id="edge44" class="edge"><title>nba_api\tools\stats&#45;&gt;nba_api\tools\stats\parameter_documentation_generator</title>
<path fill="none" stroke="black" d="M290.657,-161.62C311.015,-137.721 344,-99 344,-99 344,-99 355.23,-96.2309 370.498,-92.4662"/>
<polygon fill="black" stroke="black" points="371.591,-95.8017 380.462,-90.0094 369.915,-89.0053 371.591,-95.8017"/>
</g>
<!-- nba_api\tools\stats\static_players_update -->
<g id="node46" class="node"><title>nba_api\tools\stats\static_players_update</title>
<polygon fill="lemonchiffon" stroke="black" stroke-width="2" points="523.5,-36 520.5,-40 499.5,-40 496.5,-36 385.5,-36 385.5,-0 523.5,-0 523.5,-36"/>
<text text-anchor="start" x="393.5" y="-14.3" font-family="Times New Roman,serif" font-size="14.00">static_players_update</text>
</g>
<!-- nba_api\tools\stats&#45;&gt;nba_api\tools\stats\static_players_update -->
<g id="edge45" class="edge"><title>nba_api\tools\stats&#45;&gt;nba_api\tools\stats\static_players_update</title>
<path fill="none" stroke="black" d="M284.306,-161.793C303.14,-124.944 344,-45 344,-45 344,-45 357.619,-41.642 375.25,-37.2945"/>
<polygon fill="black" stroke="black" points="376.526,-40.5848 385.397,-34.7925 374.85,-33.7884 376.526,-40.5848"/>
</g>
</g>
</svg>
